<?xml version="1.0" encoding="UTF-8"?>
<svg id="Layer_1" xmlns="http://www.w3.org/2000/svg" viewBox="0 0 169.02 60.28">
    <defs>
        <style>
            .cls-1 {
                fill: #171717;
                stroke-width: 0;
            }
        </style>
    </defs><path
        id="Path_301"
        class="cls-1"
        d="m27.13,38.95c2.84,1.59,2.86,4.1.04,5.8-1.3.84-2.73,1.47-4.23,1.86-6.02,1.4-12.04,2.78-17.91,4.73-.61.19-1.23.33-1.86.41-2.58.38-3.84-.92-2.79-3.24,1.5-3.28,1.73-6.84,2.68-10.24.34-1.4.51-2.84.5-4.28.1-2.46.69-4.87,1.73-7.11.68-1.86,2.74-2.81,4.6-2.13.4.15.76.36,1.08.63,1.16.74,2.1,1.78,2.72,3,.49,1.08,1.26,2.02,2.23,2.71.79.56,1.21.42,1.72-.39,1.79-2.83,3.91-5.48,5.7-8.28,2.82-4.13,6.3-7.77,10.3-10.77,5.18-4.15,11.11-7.27,17.47-9.18C56.5.9,62.08.07,67.7,0c1.8-.05,3.61.3,5.42.37,6.38.16,12.65,1.61,18.46,4.25,5.86,2.84,10.53,7.66,13.2,13.59.73,1.51,1.45,2.49,3.35,2.62,2.16.21,4.3.56,6.41,1.06,2.69.56,5.25,1.77,7.93,2.45,7.77,1.95,15.22,4.86,22.67,7.72,5.12,2.07,10.07,4.55,14.79,7.42,3.13,1.82,6.21,3.77,8.23,6.97.85,1.36,1.18,2.72.43,3.19-1.2.76-2.15-.13-2.86-.87-2.19-2.27-5.04-3.53-7.7-5.01-5.9-3.37-12.11-6.15-18.56-8.29-3.71-1.18-7.43-2.35-11.05-3.75-6.39-2.47-13.06-3.83-19.69-5.39-1.55-.36-1.66-.21-1.77,1.37-.38,5.39-1.18,10.66-4.5,15.18-1.31,2.08-2.8,4.03-4.45,5.85-2.53,2.33-5.17,4.53-7.93,6.59-1.19.98-2.54,1.75-3.99,2.26-4.06,1.32-8.1,2.6-12.48,2.62-2.42.12-4.84-.16-7.16-.83-4.01-1.18-7.66-3.32-10.64-6.24-2.42-2.36-3.96-5.47-4.37-8.82-.28-2.91-.14-5.84.43-8.7.52-2.4,1.6-4.65,3.15-6.56,1.88-2.56,4.74-3.59,7.45-4.77,6.21-2.7,12.84-3.86,19.49-4.58,5.5-.67,11.06-.73,16.58-.17.21.02.44-.22.73-.37-.67-1.3-1.46-2.52-2.37-3.67-3.13-3.28-6.95-5.81-11.2-7.4-3.66-1.35-7.52-2.12-11.42-2.28-2.63-.13-5.26-.39-7.89-.46-4.92-.08-9.81.72-14.44,2.37-1.8.63-3.56,1.35-5.28,2.17-2.94,1.2-5.72,2.77-8.28,4.66-3.1,2.37-5.93,5.07-8.44,8.05-3.19,4.08-6.52,8.07-8.49,13.11,2.03,1.15,3.83,2.2,5.65,3.22l.02.02Zm34.69-8.51c-2.54.96-4.23,3.38-4.28,6.09-.18,1.53-.46,3.05-.84,4.54-.83,4.67,1.38,7.87,4.79,10.51,5.24,4.05,11.25,3.99,17.34,2.89,6.74-1.21,11.68-5.38,16.33-10.09,2.99-3.03,4.48-6.8,5.79-10.62.84-2.46.59-5.21.35-7.83-.1-1.13-1.15-1.3-2.08-1.34-4.06-.17-8.12-.16-12.18-.08-2.9.11-5.8.39-8.66.86-5.71.99-11.28,2.69-16.56,5.07h0Z"/></svg>